Coordinates
version=1
nRows=11
nColumns=63
inDegrees=yes

Units are S.I. units (second, meters, Newtons, ...)
If the header above contains a line with 'inDegrees', this indicates whether rotational values are in degrees (yes) or radians (no).

endheader
time	pelvis_tilt	pelvis_list	pelvis_rotation	pelvis_tx	pelvis_ty	pelvis_tz	hip_flexion_r	hip_adduction_r	hip_rotation_r	knee_angle_r	knee_angle_r_beta	ankle_angle_r	subtalar_angle_r	mtp_angle_r	hip_flexion_l	hip_adduction_l	hip_rotation_l	knee_angle_l	knee_angle_l_beta	ankle_angle_l	subtalar_angle_l	mtp_angle_l	L5_S1_Flex_Ext	L5_S1_Lat_Bending	L5_S1_axial_rotation	L4_L5_Flex_Ext	L4_L5_Lat_Bending	L4_L5_axial_rotation	L3_L4_Flex_Ext	L3_L4_Lat_Bending	L3_L4_axial_rotation	L2_L3_Flex_Ext	L2_L3_Lat_Bending	L2_L3_axial_rotation	L1_L2_Flex_Ext	L1_L2_Lat_Bending	L1_L2_axial_rotation	L1_T12_Flex_Ext	L1_T12_Lat_Bending	L1_T12_axial_rotation	Abs_r3	Abs_r2	Abs_r1	Abs_t1	Abs_t2	neck_flexion	neck_bending	neck_rotation	arm_flex_r	arm_add_r	arm_rot_r	elbow_flex_r	pro_sup_r	wrist_flex_r	wrist_dev_r	arm_flex_l	arm_add_l	arm_rot_l	elbow_flex_l	pro_sup_l	wrist_flex_l	wrist_dev_l
      4.12000000	      4.23973555	     -6.55220488	     90.52125195	      0.10477165	      1.00570713	      0.23162908	      1.80284166	     -2.05080993	     -7.61748764	     19.68638665	      0.34359226	     34.60376394	      0.25283335	      0.00000000	     -0.75836319	     -3.17658943	    -13.00345226	     19.53672421	      0.34098016	     33.31785708	      9.87982888	      0.00000000	     -0.07397535	     -0.00696997	     -0.75297038	     -0.13737963	     -0.00927005	     -0.80003103	     -0.12153411	     -0.01694677	     -0.80003103	     -0.08454643	     -0.01694677	     -0.65884908	     -0.06869351	     -0.01421315	     -0.61178843	     -0.04226952	     -0.01079648	     -0.56472778	     -0.52839856	     -0.07884565	     -4.18779536	      0.00000000	      0.00000000	      4.90622073	     -5.48096946	    -14.26491517	    240.04201320	   -148.74382350	    185.76850567	     94.49013649	     87.41602433	    -13.19626731	      5.43701543	    247.60381405	   -178.92487660	    205.93736873	     77.85180988	     88.29023823	     -4.83844600	    -11.16429656
      4.14000000	      4.34656628	     -6.61138731	     90.86968072	      0.10515223	      1.00564858	      0.23221782	      1.84179553	     -1.85989208	     -7.80692898	     19.59563700	      0.34200838	     34.29775909	      0.07756839	      0.00000000	     -0.74516230	     -3.32155078	    -12.71878272	     19.29053128	      0.33668329	     33.24402304	      9.96957233	      0.00000000	     -0.06932869	     -0.01310874	     -0.83492318	     -0.12875031	     -0.01743462	     -0.88710588	     -0.11390010	     -0.03187259	     -0.88710588	     -0.07923576	     -0.03187259	     -0.73055779	     -0.06437862	     -0.02673134	     -0.67837509	     -0.03961441	     -0.02030544	     -0.62619239	     -0.49520788	     -0.14828867	     -4.64359227	      0.00000000	      0.00000000	      4.76391879	     -5.61906939	    -13.80617274	    240.12891776	   -148.58539300	    185.58374333	     94.25926552	     87.19359063	    -12.99146744	      6.17555084	    248.37510786	   -179.44409925	    206.65176600	     76.47997499	     87.93594348	     -4.29169905	    -10.43496137
      4.16000000	      4.49749015	     -6.43948472	     92.45438382	      0.10452878	      1.00557276	      0.23197761	      1.23355831	     -1.52759326	     -8.85038321	     19.07223106	      0.33287323	     33.76212667	     -0.54981617	      0.00000000	     -0.73535880	     -3.58980975	    -11.20953299	     19.26964592	      0.33631877	     33.41110421	     10.19335562	      0.00000000	     -0.09296583	     -0.03074220	     -1.10464003	     -0.17264685	     -0.04088712	     -1.17368003	     -0.15273356	     -0.07474658	     -1.17368003	     -0.10625065	     -0.07474658	     -0.96656003	     -0.08632807	     -0.06268949	     -0.89752002	     -0.05312068	     -0.04761966	     -0.82848002	     -0.66404564	     -0.34776187	     -6.14367646	      0.00000000	      0.00000000	      4.98742668	     -5.13305144	    -13.47246312	    239.77653841	   -148.31691374	    184.67048442	     94.79899232	     86.37187184	    -12.12897568	      9.30455275	    249.33040325	   -179.86469483	    207.73843881	     75.16424086	     86.57590961	     -1.05244333	     -9.11487928
      4.18000000	      4.59747049	     -6.44125736	     92.81398790	      0.10465079	      1.00540039	      0.23193817	      1.18580433	     -1.40062785	     -9.18022295	     19.06562021	      0.33275785	     33.45080716	     -0.53510870	      0.00000000	     -0.83689980	     -3.67695964	    -10.81104094	     18.91070104	      0.33005400	     33.54983398	     10.34116601	      0.00000000	     -0.08045379	     -0.02526186	     -1.14728192	     -0.14941074	     -0.03359827	     -1.21898704	     -0.13217754	     -0.06142169	     -1.21898704	     -0.09195064	     -0.06142169	     -1.00387168	     -0.07470939	     -0.05151399	     -0.93216656	     -0.04597130	     -0.03913062	     -0.86046144	     -0.57467340	     -0.28576722	     -6.38083784	      0.00000000	      0.00000000	      5.11088653	     -5.25525378	    -12.17262512	    239.60490942	   -148.16848482	    184.20842176	     94.79294837	     85.87075024	    -12.16623353	      9.63671401	    249.89392268	   -180.44566885	    208.61115212	     74.13113581	     85.98248722	     -0.25331884	     -8.45006183
      4.20000000	      4.64003339	     -6.42272550	     93.88369545	      0.10424772	      1.00537804	      0.23210470	      0.86960503	     -1.34134517	    -10.53913984	     18.69438738	      0.32627861	     33.21739589	     -0.03992448	      0.00000000	     -0.72632587	     -3.75985992	     -9.73589313	     18.76338694	      0.32748288	     33.77175070	     10.54731061	      0.00000000	     -0.08993663	     -0.03938424	     -1.34200459	     -0.16702131	     -0.05238104	     -1.42587987	     -0.14775689	     -0.09575885	     -1.42587987	     -0.10278857	     -0.09575885	     -1.17425401	     -0.08351515	     -0.08031235	     -1.09037873	     -0.05138979	     -0.06100619	     -1.00650344	     -0.64240835	     -0.44552243	     -7.46382691	      0.00000000	      0.00000000	      5.59836626	     -4.66649812	    -10.66980706	    239.14837573	   -148.09936561	    183.49282948	     95.35808882	     83.05566003	    -12.33814914	     10.93132410	    250.16834308	   -180.93499646	    208.75108507	     73.76166212	     82.43538595	      3.00703382	     -6.58511485
      4.22000000	      4.75869622	     -6.46664532	     94.11495185	      0.10431946	      1.00552396	      0.23260834	      0.88950550	     -1.21103847	    -10.74283813	     18.59368936	      0.32452110	     33.01187085	     -0.05002556	      0.00000000	     -0.69649790	     -3.85517434	     -9.45671880	     18.49195738	      0.32274554	     33.95972708	     10.73194837	      0.00000000	     -0.10676204	     -0.03065237	     -1.34279481	     -0.19826778	     -0.04076766	     -1.42671949	     -0.17539935	     -0.07452818	     -1.42671949	     -0.12201833	     -0.07452818	     -1.17494546	     -0.09913923	     -0.06250632	     -1.09102078	     -0.06100383	     -0.04748053	     -1.00709611	     -0.76259054	     -0.34674580	     -7.46822190	      0.00000000	      0.00000000	      6.14821167	     -4.61601730	     -9.08801888	    238.42377540	   -147.67212773	    182.40807528	     96.23224222	     82.73148642	    -12.66479717	     10.89717328	    250.27181392	   -181.51761704	    208.73294953	     73.81476393	     82.10197169	      3.09703336	     -6.22938759
      4.24000000	      4.89811506	     -6.54701317	     94.44496335	      0.10428665	      1.00576438	      0.23307591	      0.92310446	     -1.06119524	    -11.00252076	     18.45293011	      0.32206439	     32.85111910	     -0.16156985	      0.00000000	     -0.57308879	     -3.99308822	     -9.16811435	     18.31376400	      0.31963548	     34.07862430	     10.93896875	      0.00000000	     -0.13043100	     -0.02462899	     -1.36770300	     -0.24222342	     -0.03275656	     -1.45318444	     -0.21428510	     -0.05988292	     -1.45318444	     -0.14906959	     -0.05988292	     -1.19674013	     -0.12111823	     -0.05022344	     -1.11125869	     -0.07452828	     -0.03815030	     -1.02577725	     -0.93165562	     -0.27860805	     -7.60675378	      0.00000000	      0.00000000	      6.68472644	     -4.18772358	     -7.53597813	    237.38827732	   -147.12295915	    181.04895119	     97.57711115	     82.59476855	    -13.15513380	     11.14231581	    250.17670592	   -181.92595943	    208.31324760	     74.44460973	     81.81941476	      3.16020480	     -5.79227480
      4.26000000	      4.86252410	     -6.83577349	     95.43068028	      0.10389119	      1.00584564	      0.23391969	      1.05048726	     -1.03360989	    -11.59876316	     18.16316605	      0.31700705	     32.69803713	     -0.78432977	      0.00000000	     -0.04516623	     -3.99441887	     -8.38268879	     18.28228206	      0.31908602	     34.11800236	     11.34377985	      0.00000000	     -0.13630618	     -0.06305544	     -1.50559837	     -0.25313421	     -0.08386373	     -1.59969826	     -0.22393743	     -0.15331300	     -1.59969826	     -0.15578434	     -0.15331300	     -1.31739857	     -0.12657392	     -0.12858265	     -1.22329867	     -0.07788535	     -0.09767288	     -1.12919877	     -0.97362143	     -0.71329574	     -8.37368643	      0.00000000	      0.00000000	      7.09742437	     -2.78803635	     -6.61106436	    235.84506828	   -146.67615403	    178.96097176	     99.82131421	     84.92737539	    -14.62149099	     14.55856994	    249.98542511	   -182.48681872	    207.31216942	     75.69061207	     82.58736174	      3.39926737	     -2.35352053
      4.28000000	      4.95054118	     -7.10720943	     95.65318848	      0.10392191	      1.00589190	      0.23495651	      1.39471265	     -0.95249296	    -11.57190648	     18.19201378	      0.31751054	     32.63570677	     -1.24877931	      0.00000000	      0.35432956	     -4.04858208	     -8.09431788	     18.25036320	      0.31852893	     34.11547237	     11.31285314	      0.00000000	     -0.15118849	     -0.07070210	     -1.51388345	     -0.28077214	     -0.09403380	     -1.60850117	     -0.24838757	     -0.17190509	     -1.60850117	     -0.17279332	     -0.17190509	     -1.32464802	     -0.14039363	     -0.14417573	     -1.23003031	     -0.08638910	     -0.10951756	     -1.13541259	     -1.07992425	     -0.79979631	     -8.41976561	      0.00000000	      0.00000000	      7.50897104	     -1.84686228	     -5.53090917	    234.68248364	   -146.03577212	    177.35522318	    101.62492021	     87.33982697	    -14.94100784	     16.27844998	    249.87488237	   -182.94438587	    206.58437706	     76.69604756	     83.81515384	      2.67568777	     -1.12703131
      4.30000000	      5.01762789	     -7.33507036	     95.75674146	      0.10396908	      1.00590297	      0.23617021	      1.72715945	     -0.91801950	    -11.56619334	     18.28796704	      0.31918524	     32.56373246	     -1.51402721	      0.00000000	      0.67533703	     -4.08444330	     -7.93802397	     18.21313804	      0.31787923	     34.10698140	     11.33773923	      0.00000000	     -0.17337895	     -0.07372475	     -1.50860102	     -0.32198205	     -0.09805392	     -1.60288858	     -0.28484428	     -0.17925436	     -1.60288858	     -0.19815481	     -0.17925436	     -1.32002589	     -0.16099970	     -0.15033951	     -1.22573833	     -0.09906873	     -0.11419964	     -1.13145076	     -1.23842852	     -0.83398912	     -8.39038629	      0.00000000	      0.00000000	      7.84563592	     -1.27829026	     -4.29887462	    233.82103059	   -145.40154052	    176.31872676	    103.06501603	     87.94355108	    -15.17282476	     16.86230512	    249.84628134	   -183.39484989	    206.29714872	     77.39505870	     83.81283082	      2.00273989	     -0.71626082
      4.32000000	      4.94911972	     -7.54438465	     95.56841788	      0.10476928	      1.00586912	      0.23690909	      2.06380303	     -0.86662971	    -10.54125744	     18.42338689	      0.32154876	     32.24069954	     -2.85259353	      0.00000000	      0.88892784	     -3.99155003	     -7.93527585	     18.19461923	      0.31755601	     33.98802112	     11.05886762	      0.00000000	     -0.17644407	     -0.11090204	     -1.46074178	     -0.32767428	     -0.14749972	     -1.55203814	     -0.28987996	     -0.26964722	     -1.55203814	     -0.20165792	     -0.26964722	     -1.27814906	     -0.16384596	     -0.22615144	     -1.18685270	     -0.10082014	     -0.17178726	     -1.09555634	     -1.26032232	     -1.25454608	     -8.12420757	      0.00000000	      0.00000000	      7.75021296	     -0.44916915	     -3.97522674	    232.99775498	   -144.99855412	    175.39227928	    104.43708420	     88.35730937	    -14.85997738	     19.14921207	    249.89198526	   -183.53428287	    207.85356218	     78.44899893	     81.42262496	     -3.01782783	      1.22824723
